<?xml version="1.0" standalone="no"?>
<!DOCTYPE svg PUBLIC "-//W3C//DTD SVG 20010904//EN"
 "http://www.w3.org/TR/2001/REC-SVG-20010904/DTD/svg10.dtd">
<svg version="1.0" xmlns="http://www.w3.org/2000/svg"
 width="1280.000000pt" height="720.000000pt" viewBox="0 0 1280.000000 720.000000"
 preserveAspectRatio="xMidYMid meet">
<g transform="translate(0.000000,720.000000) scale(0.100000,-0.100000)"
fill="#000000" stroke="none">
<path d="M6185 6830 c-370 -31 -781 -148 -1129 -322 -627 -313 -1120 -809
-1426 -1433 -450 -916 -437 -1938 35 -2893 l75 -151 -277 -822 c-208 -619
-274 -826 -266 -838 6 -9 20 -17 32 -19 16 -3 21 -10 21 -33 0 -27 3 -30 23
-23 71 22 647 206 1123 358 l550 176 145 -68 c569 -272 1149 -370 1754 -296
902 110 1714 612 2219 1374 409 616 614 1380 555 2077 -54 646 -290 1241 -693
1745 -396 496 -960 872 -1577 1052 -132 39 -369 88 -509 106 -115 15 -519 21
-655 10z m640 -674 c580 -87 1074 -334 1485 -746 400 -399 638 -872 706 -1405
21 -166 22 -485 1 -650 -71 -565 -326 -1083 -732 -1490 -300 -302 -628 -505
-1025 -636 -263 -86 -487 -121 -790 -121 -249 -1 -392 15 -605 67 -290 70
-482 152 -807 344 -25 15 -43 10 -488 -132 -254 -81 -466 -145 -470 -142 -5 3
57 200 136 438 79 237 144 443 144 456 0 13 -26 65 -59 115 -356 553 -491
1156 -400 1791 53 371 180 697 391 1001 440 637 1131 1044 1908 1124 119 12
486 4 605 -14z"/>
<path d="M5325 5227 c-62 -21 -114 -58 -191 -138 -170 -178 -250 -364 -261
-614 -13 -287 99 -604 352 -995 423 -653 848 -1036 1410 -1270 288 -120 476
-182 600 -200 93 -12 277 15 391 59 103 40 247 134 311 204 98 108 183 348
183 519 0 71 -2 80 -27 108 -51 56 -685 387 -760 397 -68 9 -95 -10 -207 -141
-174 -203 -228 -256 -259 -256 -36 0 -277 121 -392 197 -281 186 -515 441
-698 765 -15 26 -27 51 -27 57 0 6 32 46 71 88 94 103 125 150 165 247 46 109
44 138 -17 303 -88 240 -116 315 -164 444 -50 134 -88 193 -139 214 -47 20
-292 28 -341 12z"/>
</g>
</svg>
