<svg width="452" height="512" viewBox="0 0 452 512" fill="none" xmlns="http://www.w3.org/2000/svg">
<path fill-rule="evenodd" clip-rule="evenodd" d="M0 0L41.0864 460.816L225.464 512L410.344 460.741L451.474 0H0ZM375.323 431.748L226.116 472.795L226.116 414.143L225.667 414.249L109.698 382.139L101.78 293.458H158.518L162.637 338.473L225.68 355.403L226.116 355.337V264.112L98.9959 264.112L94.0466 207.678L226.116 151.152L226.116 147.248H89.0206L84.0126 90.8141H225.543H226.116L226.116 38.3764H410.282L375.323 431.748Z" fill="#0071BC"/>
<path fill-rule="evenodd" clip-rule="evenodd" d="M235.226 147.248L226.116 151.152V207.678L226.116 264.112H295.138L288.864 337.896L226.116 355.386V414.187L341.701 382.077L356.921 207.678L226.116 207.678L362.052 147.248L366.906 90.8141H226.116V146.541V147.248H235.226Z" fill="#0071BC"/>
</svg>
