<?xml version="1.0" encoding="utf-8"?>
<!-- Generator: Adobe Illustrator 27.9.2, SVG Export Plug-In . SVG Version: 6.00 Build 0)  -->
<svg version="1.1" id="Camada_1" xmlns="http://www.w3.org/2000/svg" xmlns:xlink="http://www.w3.org/1999/xlink" x="0px" y="0px"
	 viewBox="0 0 90 90" style="enable-background:new 0 0 90 90;" xml:space="preserve">
<style type="text/css">
	.st0{fill-rule:evenodd;clip-rule:evenodd;}
</style>
<path class="st0" d="M5.3,0l7.2,80.7l32.3,9l32.4-9L84.4,0H5.3z M71.1,75.6L45,82.8V72.5h-0.1l-20.3-5.6l-1.4-15.5h9.9l0.7,7.9l11,3
	h0.1V6.7h32.2L71.1,75.6z M22.7,46.2L22.7,46.2L22.7,46.2H45v-9.9l0,0v-9.9l-23.1,9.9l0,0l0,0L22.7,46.2z M44.9,25.8v-9.9h-0.1H20
	l0.9,9.9H44.9z"/>
<path class="st0" d="M46.5,25.8l-1.6,0.7v9.9l0,0v9.9H57l-1.1,12.9l-11,3.1v10.3L65.1,67l2.7-30.5H44.9l23.8-10.6l0.9-9.9H44.9v9.8
	v0.1h1.6V25.8z"/>
</svg>
