<?xml version="1.0" encoding="utf-8"?>
<!-- Generator: Adobe Illustrator 27.9.2, SVG Export Plug-In . SVG Version: 6.00 Build 0)  -->
<svg version="1.1" id="Camada_1" xmlns="http://www.w3.org/2000/svg" xmlns:xlink="http://www.w3.org/1999/xlink" x="0px" y="0px"
	 viewBox="0 0 381 271" style="enable-background:new 0 0 381 271;" xml:space="preserve">
<style type="text/css">
	.st0{fill-rule:evenodd;clip-rule:evenodd;fill:#2EBC06;fill-opacity:0.2;}
	.st1{fill-rule:evenodd;clip-rule:evenodd;fill:#2EBC06;fill-opacity:0.3;}
</style>
<path class="st0" d="M174.3,187.3c-41.7-13.2-55.6-43.9-76.9-68.7C78.7,96.7,57.3,74.6,58.3,51.9c0.9-22.7,27.6-38.2,44.3-57.1
	c22.5-25.5,19.7-69.2,70.4-72.9c50.7-3.7,84.1,43.5,134.6,57.9c53,15.1,123.2-0.6,161.8,26.4c37.8,26.4,11.4,61.8,9.1,93
	c-2.2,30.5,15.3,68.9-22.3,86.9c-37.8,18-101.9-2.8-154.3-2.6C257.9,183.6,216.1,200.5,174.3,187.3z"/>
<path class="st1" d="M176.5,197.7c-41.7-13.2-55.6-43.9-76.9-68.7c-18.8-21.9-40.2-43.9-39.2-66.7C61.3,39.7,88,24.2,104.7,5.3
	c22.5-25.5,19.7-69.2,70.4-72.9c50.7-3.7,84.1,43.5,134.6,57.9c53,15.1,123.2-0.6,161.8,26.4c37.8,26.4,11.4,61.8,9.1,93
	c-2.2,30.5,15.3,68.9-22.3,86.9c-37.8,18-101.9-2.8-154.3-2.6C260,194.1,218.3,211,176.5,197.7z"/>
</svg>
