<?xml version="1.0" encoding="utf-8"?>
<!-- Generator: Adobe Illustrator 27.9.2, SVG Export Plug-In . SVG Version: 6.00 Build 0)  -->
<svg version="1.1" id="Camada_1" xmlns="http://www.w3.org/2000/svg" xmlns:xlink="http://www.w3.org/1999/xlink" x="0px" y="0px"
	 viewBox="0 0 418 402" style="enable-background:new 0 0 418 402;" xml:space="preserve">
<style type="text/css">
	.st0{fill-rule:evenodd;clip-rule:evenodd;fill:#2EBC06;fill-opacity:0.2;}
	.st1{fill-rule:evenodd;clip-rule:evenodd;fill:#2EBC06;fill-opacity:0.3;}
</style>
<path class="st0" d="M450.7,0c78.2,1.4,130.5,61.5,188.4,103.2c51.2,36.8,106.5,72.2,127.7,124.3c21.2,52.1-4.8,105.6-11.9,160.1
	c-9.5,73.4,38.4,170.6-36.8,213.8c-75.3,43.3-174.6-41-267.5-39c-97.7,2.2-191.3,85.9-278.6,51.1C86.8,579.5,92.6,481.2,65,408.6
	c-27-70.8-92.7-145.9-52-212.4c40.8-66.8,161.5-63.4,243-99.9C324.2,65.7,372.3-1.4,450.7,0z"/>
<path class="st1" d="M486.7,19c78.2,1.4,130.5,61.5,188.4,103.2c51.2,36.8,106.5,72.2,127.7,124.3c21.2,52.1-4.8,105.6-11.9,160.1
	c-9.5,73.4,38.4,170.6-36.8,213.8c-75.3,43.3-174.6-41-267.5-39c-97.7,2.2-191.3,85.9-278.6,51.1c-85.3-34-79.5-132.4-107.1-204.9
	c-27-70.8-92.7-145.9-52-212.4c40.8-66.8,161.5-63.4,243-99.9C360.2,84.7,408.3,17.6,486.7,19z"/>
</svg>
