<?xml version="1.0" encoding="utf-8"?>
<!-- Generator: Adobe Illustrator 27.9.2, SVG Export Plug-In . SVG Version: 6.00 Build 0)  -->
<svg version="1.1" id="Camada_1" xmlns="http://www.w3.org/2000/svg" xmlns:xlink="http://www.w3.org/1999/xlink" x="0px" y="0px"
	 viewBox="0 0 196 503" style="enable-background:new 0 0 196 503;" xml:space="preserve">
<style type="text/css">
	.st0{fill-rule:evenodd;clip-rule:evenodd;fill:#2EBC06;fill-opacity:0.2;}
	.st1{fill-rule:evenodd;clip-rule:evenodd;fill:#2EBC06;fill-opacity:0.3;}
</style>
<path class="st0" d="M-69.8,145.7c20.9-25.2,48.4-26.1,73.3-33.9c21.9-6.8,44.6-15.4,62.1-8.3c17.5,7.1,22.9,30.1,33.5,47.1
	c14.2,22.9,49.1,33.5,39.2,69.8c-10,36.3-55.4,46.1-79.4,77.1C33.5,330.2,28,383.5-3,402.7c-30.3,18.8-51.2-9.7-75.1-20.3
	c-23.3-10.3-57.8-9-62.3-40.3c-4.5-31.4,28.1-70,41.2-106.6C-88.1,204.9-90.7,171-69.8,145.7z"/>
<path class="st1" d="M-79.9,148.1C-59,122.9-31.5,122-6.7,114.2c21.9-6.8,44.6-15.4,62.1-8.3c17.5,7.1,22.9,30.1,33.5,47.1
	c14.2,22.9,49.1,33.5,39.2,69.8c-10,36.3-55.4,46.1-79.4,77.1c-25.2,32.6-30.8,85.8-61.8,105c-30.3,18.8-51.2-9.7-75.1-20.3
	c-23.3-10.3-57.8-9-62.3-40.3c-4.5-31.4,28.1-70,41.2-106.6C-98.3,207.2-100.9,173.4-79.9,148.1z"/>
</svg>
