<?xml version="1.0" encoding="utf-8"?>
<!-- Generator: Adobe Illustrator 27.9.2, SVG Export Plug-In . SVG Version: 6.00 Build 0)  -->
<svg version="1.1" id="Camada_1" xmlns="http://www.w3.org/2000/svg" xmlns:xlink="http://www.w3.org/1999/xlink" x="0px" y="0px"
	 viewBox="0 0 471 287" style="enable-background:new 0 0 471 287;" xml:space="preserve">
<style type="text/css">
	.st0{fill-rule:evenodd;clip-rule:evenodd;fill:#2EBC06;fill-opacity:0.2;}
	.st1{fill-rule:evenodd;clip-rule:evenodd;fill:#2EBC06;fill-opacity:0.3;}
</style>
<path class="st0" d="M-6.3,337.8c-23.7-34.2-15.5-68.1-16.5-101c-0.9-29.1-3.7-59.7,11-78.7c14.7-19,44.5-17.7,69-24.9
	c32.9-9.6,57.6-48.7,98.6-24.2c41,24.5,37.5,83.4,67.2,123.3c31.2,41.9,94.5,66.8,107.4,111.2c12.6,43.4-29.3,59.3-50.3,84.9
	c-20.5,25-30.7,67.6-70.4,62.4c-39.9-5.2-76.1-58.1-116.2-86.6C59.7,380.3,17.4,372-6.3,337.8z"/>
<path class="st1" d="M-6.9,351c-23.7-34.2-15.5-68.1-16.5-101c-0.9-29.1-3.7-59.7,11-78.7c14.7-19,44.5-17.7,69-24.9
	c32.9-9.6,57.6-48.7,98.6-24.2c41,24.5,37.5,83.4,67.2,123.3c31.2,41.9,94.5,66.8,107.4,111.2c12.6,43.4-29.3,59.3-50.3,84.9
	c-20.5,25-30.7,67.6-70.4,62.4c-39.9-5.2-76.1-58.1-116.2-86.6C59.1,393.5,16.8,385.2-6.9,351z"/>
</svg>
