<?xml version="1.0" encoding="utf-8"?>
<!-- Generator: Adobe Illustrator 27.9.2, SVG Export Plug-In . SVG Version: 6.00 Build 0)  -->
<svg version="1.1" id="Camada_1" xmlns="http://www.w3.org/2000/svg" xmlns:xlink="http://www.w3.org/1999/xlink" x="0px" y="0px"
	 viewBox="0 0 1033 369" style="enable-background:new 0 0 1033 369;" xml:space="preserve">
<style type="text/css">
	.st0{fill-rule:evenodd;clip-rule:evenodd;fill:#2EBC06;fill-opacity:0.2;}
	.st1{fill-rule:evenodd;clip-rule:evenodd;fill:#2EBC06;fill-opacity:0.3;}
</style>
<path class="st0" d="M127.2,723.1c-95-33.9-126.6-112.4-175.1-176c-42.8-56.1-91.5-112.6-89.4-170.7c2.1-58.1,62.8-97.8,100.9-146.4
	C14.8,164.6,8.5,52.7,124,43.1c115.5-9.6,191.7,111.5,306.6,148.2c120.8,38.6,280.6-1.6,368.7,67.7c86.1,67.7,25.9,158.2,20.7,238.4
	c-5.1,78.2,34.8,176.5-50.9,222.5c-86,46.1-232-7.3-351.4-6.7C317.5,713.7,222.4,757,127.2,723.1z"/>
<path class="st1" d="M144.7,749.9C49.7,716,18,637.5-30.4,574c-42.8-56.1-91.5-112.6-89.4-170.7c2.1-58.1,62.8-97.8,100.9-146.4
	C32.3,191.4,26,79.5,141.4,70C257,60.4,333.1,181.5,448,218.2c120.8,38.6,280.6-1.6,368.7,67.7c86.1,67.7,25.9,158.2,20.7,238.4
	c-5.1,78.2,34.8,176.5-50.9,222.5c-86,46.1-232-7.3-351.4-6.7C335,740.5,239.9,783.9,144.7,749.9z"/>
</svg>
