<?xml version="1.0" encoding="utf-8"?>
<!-- Generator: Adobe Illustrator 27.9.2, SVG Export Plug-In . SVG Version: 6.00 Build 0)  -->
<svg version="1.1" id="Camada_1" xmlns="http://www.w3.org/2000/svg" xmlns:xlink="http://www.w3.org/1999/xlink" x="0px" y="0px"
	 viewBox="0 0 512 512" style="enable-background:new 0 0 512 512;" xml:space="preserve">
<style type="text/css">
	.st0{clip-path:url(#SVGID_00000144302937493444807260000017517398004638788750_);}
	.st1{fill-rule:evenodd;clip-rule:evenodd;}
</style>
<g>
	<g>
		<defs>
			<rect id="SVGID_1_" width="512" height="512"/>
		</defs>
		<clipPath id="SVGID_00000050654165696849054830000010868010473137917879_">
			<use xlink:href="#SVGID_1_"  style="overflow:visible;"/>
		</clipPath>
		<g style="clip-path:url(#SVGID_00000050654165696849054830000010868010473137917879_);">
			<path class="st1" d="M171.3,0C124.2,0,86,38.2,86,85.3s38.2,85.3,85.3,85.3c-47.1,0-85.3,38.2-85.3,85.3s38.2,85.3,85.3,85.3
				c-47.1,0-85.3,38.2-85.3,85.3s38.2,85.3,85.3,85.3s85.3-38.2,85.3-85.3V256c0,47.1,38.2,85.3,85.3,85.3s85.3-38.2,85.3-85.3
				s-38.2-85.3-85.3-85.3c47.1,0,85.3-38.2,85.3-85.3C427.3,38.2,389.1,0,342,0H171.3z M342,170.7h-85.3V256
				C256.7,208.9,294.9,170.7,342,170.7z"/>
		</g>
	</g>
</g>
</svg>
