<?xml version="1.0" encoding="utf-8"?>
<!-- Generator: Adobe Illustrator 27.9.2, SVG Export Plug-In . SVG Version: 6.00 Build 0)  -->
<svg version="1.1" id="Camada_1" xmlns="http://www.w3.org/2000/svg" xmlns:xlink="http://www.w3.org/1999/xlink" x="0px" y="0px"
	 viewBox="0 0 127 128" style="enable-background:new 0 0 127 128;" xml:space="preserve">
<style type="text/css">
	.st0{fill-rule:evenodd;clip-rule:evenodd;}
</style>
<path class="st0" d="M124.5,58.4L69.5,3.3c-3.2-3.2-8.3-3.2-11.5,0L46.5,14.7L61,29.2c3.4-1.1,7.2-0.4,9.9,2.3
	c2.7,2.7,3.5,6.6,2.3,10l14,14c3.4-1.2,7.3-0.4,10,2.3c3.8,3.8,3.8,9.9,0,13.7c-3.8,3.8-9.9,3.8-13.7,0c-2.8-2.8-3.5-7-2.1-10.5
	l-13-13l0,34.3c0.9,0.5,1.8,1.1,2.6,1.8c3.8,3.8,3.8,9.9,0,13.7c-3.8,3.8-9.9,3.8-13.7,0c-3.8-3.8-3.8-9.9,0-13.7
	c0.9-0.9,2-1.6,3.2-2.1V47.3c-1.2-0.5-2.2-1.2-3.2-2.1c-2.9-2.9-3.5-7.1-2.1-10.6L40.9,20.3L3.1,58.1C0,61.3,0,66.4,3.1,69.6
	l55.1,55.1c3.2,3.2,8.3,3.2,11.5,0l54.8-54.8C127.7,66.7,127.7,61.5,124.5,58.4z"/>
</svg>
