<?xml version="1.0" encoding="utf-8"?>
<!-- Generator: Adobe Illustrator 27.9.2, SVG Export Plug-In . SVG Version: 6.00 Build 0)  -->
<svg version="1.1" id="Camada_1" xmlns="http://www.w3.org/2000/svg" xmlns:xlink="http://www.w3.org/1999/xlink" x="0px" y="0px"
	 viewBox="0 0 57 57" style="enable-background:new 0 0 57 57;" xml:space="preserve">
<style type="text/css">
	.st0{fill-rule:evenodd;clip-rule:evenodd;fill:#2EBC06;}
	.st1{fill:#2EBC06;}
</style>
<path class="st0" d="M28.5,1.4c-6.7,0-13.2,2.4-18.3,6.7c-5.2,4.4-8.6,10.4-9.7,17s0.2,13.4,3.7,19.1s8.9,10,15.3,12.1
	c1.4,0.3,1.9-0.6,1.9-1.4c0-0.7,0-2.9,0-5.2c-7.9,1.7-9.5-3.3-9.5-3.3c-1.3-3.3-3.1-4.1-3.1-4.1C6.2,40.6,9,40.6,9,40.6
	c2.8,0.2,4.3,2.9,4.3,2.9c2.5,4.3,6.6,3.1,8.2,2.3c0.3-1.8,1-3.1,1.8-3.8c-6.3-0.7-12.9-3.1-12.9-13.9c0-2.8,1-5.5,2.9-7.6
	C13,19.8,12,16.9,13.6,13c0,0,2.4-0.8,7.8,2.9c4.6-1.3,9.5-1.3,14.2,0c5.4-3.6,7.8-2.9,7.8-2.9c1.5,3.9,0.6,6.7,0.3,7.5
	c1.9,2.1,3,4.8,2.9,7.6c0,10.8-6.6,13.2-12.9,13.9c1,0.9,1.9,2.6,1.9,5.2c0,3.8,0,6.8,0,7.7c0,0.8,0.5,1.6,1.9,1.4
	c6.4-2.1,11.8-6.4,15.3-12.1s4.8-12.5,3.7-19.1s-4.5-12.6-9.6-17C41.7,3.8,35.2,1.4,28.5,1.4L28.5,1.4z"/>
<path class="st1" d="M10.9,41.9c-0.1,0.1-0.3,0.2-0.5,0.1c-0.2-0.1-0.3-0.3-0.3-0.4c0.1-0.1,0.3-0.2,0.5-0.1
	C10.8,41.5,11,41.7,10.9,41.9z"/>
<path class="st1" d="M12,43.1c-0.1,0-0.2,0.1-0.3,0c-0.1,0-0.2-0.1-0.3-0.2c-0.2-0.2-0.2-0.5-0.1-0.6c0.1-0.1,0.4-0.1,0.6,0.1
	C12.1,42.7,12.2,43,12,43.1z"/>
<path class="st1" d="M13.2,44.8c-0.2,0.1-0.5,0-0.6-0.2c0,0-0.1-0.1-0.1-0.2c0-0.1,0-0.1,0-0.2c0-0.1,0-0.1,0-0.2
	c0-0.1,0.1-0.1,0.1-0.2c0.2-0.1,0.5,0,0.6,0.2C13.3,44.3,13.3,44.6,13.2,44.8L13.2,44.8z"/>
<path class="st1" d="M14.7,46.3c-0.2,0.2-0.5,0.1-0.7-0.1c-0.3-0.2-0.3-0.6-0.2-0.7c0.2-0.2,0.5-0.1,0.7,0.1
	C14.8,45.8,14.8,46.2,14.7,46.3L14.7,46.3z"/>
<path class="st1" d="M16.8,47.2c-0.1,0.2-0.4,0.3-0.7,0.2c-0.3-0.1-0.5-0.4-0.5-0.6c0.1-0.2,0.4-0.3,0.7-0.2
	C16.7,46.8,16.9,47,16.8,47.2z"/>
<path class="st1" d="M19.1,47.4c0,0.2-0.3,0.4-0.6,0.4c-0.3,0-0.6-0.2-0.6-0.4s0.3-0.4,0.6-0.4C18.8,47,19.1,47.2,19.1,47.4z"/>
<path class="st1" d="M21.3,47c0,0.2-0.2,0.5-0.5,0.5c-0.3,0.1-0.6-0.1-0.7-0.3c0-0.2,0.2-0.5,0.5-0.5C20.9,46.7,21.2,46.8,21.3,47z"
	/>
</svg>
