<?xml version="1.0" encoding="utf-8"?>
<!-- Generator: Adobe Illustrator 27.9.2, SVG Export Plug-In . SVG Version: 6.00 Build 0)  -->
<svg version="1.1" id="Camada_1" xmlns="http://www.w3.org/2000/svg" xmlns:xlink="http://www.w3.org/1999/xlink" x="0px" y="0px"
	 viewBox="0 0 57 57" style="enable-background:new 0 0 57 57;" xml:space="preserve">
<style type="text/css">
	.st0{fill:#2EBC06;}
</style>
<path class="st0" d="M28.5,0L28.5,0C44.2,0,57,12.8,57,28.5l0,0C57,44.2,44.2,57,28.5,57l0,0C12.8,57,0,44.2,0,28.5l0,0
	C0,12.8,12.8,0,28.5,0z"/>
<path d="M12.7,14.2c-1.6,0-2.9,1.3-2.9,2.9V40c0,1.6,1.3,2.9,2.9,2.9h31.5c1.6,0,2.9-1.3,2.9-2.9V17c0-1.6-1.3-2.9-2.9-2.9H12.7z
	 M16.6,17h23.8l-11.9,8.8L16.6,17z M14.2,20.6l14.3,10.6l14.3-10.6V40H14.2V20.6z"/>
</svg>
