<svg width="127" height="127" viewBox="0 0 512 512" fill="none" xmlns="http://www.w3.org/2000/svg">
<g id="Type=Flat, showSymbol=True, showText=False">
<path id="Union" fill-rule="evenodd" clip-rule="evenodd" d="M30 0L71.0852 460.819L255.451 512L440.327 460.746L481.456 0H30ZM405.116 431.408L255.728 472.824V414.174L255.468 414.246L139.696 382.107L131.778 293.366H188.512L192.536 338.442L255.48 355.438L255.532 355.424V414.219L371.396 382.107L385.527 223.766L386.906 208.59H255.728V150.715H392.049L397.11 94.1969H255.728V37.6788H440.263L405.116 431.408ZM255.532 94.1969H114.009L129.252 265.107H255.532V208.59H180.94L175.775 150.715H255.532V94.1969ZM318.567 338.406L255.728 355.366V265.107H325.127L318.567 338.406Z" fill="#E44D26"/>
</g>
</svg>
