<?xml version="1.0" encoding="utf-8"?>
<!-- Generator: Adobe Illustrator 27.9.2, SVG Export Plug-In . SVG Version: 6.00 Build 0)  -->
<svg version="1.1" id="Camada_1" xmlns="http://www.w3.org/2000/svg" xmlns:xlink="http://www.w3.org/1999/xlink" x="0px" y="0px"
	 viewBox="0 0 127 127" style="enable-background:new 0 0 127 127;" xml:space="preserve">
<style type="text/css">
	.st0{clip-path:url(#SVGID_00000044173346084035405960000015610501378172527243_);}
	.st1{fill-rule:evenodd;clip-rule:evenodd;}
</style>
<g>
	<defs>
		<rect id="SVGID_1_" x="0.5" y="0.2" width="126.2" height="126.2"/>
	</defs>
	<clipPath id="SVGID_00000130636632914412944060000017164009759836650117_">
		<use xlink:href="#SVGID_1_"  style="overflow:visible;"/>
	</clipPath>
	<g style="clip-path:url(#SVGID_00000130636632914412944060000017164009759836650117_);">
		<path class="st1" d="M7.9,0.2L18,113.7l45.4,12.6l45.6-12.6L119.1,0.2H7.9z M100.3,106.5l-36.8,10.2v-14.5l-0.1,0l-28.5-7.9
			l-2-21.9h14l1,11.1l15.5,4.2l0,0v14.5L92,94.3l3.5-39l0.3-3.7H63.5V37.3h33.6l1.2-13.9H63.5V9.5H109L100.3,106.5z M63.4,23.4H28.6
			l3.8,42.1h31.1V51.6H45.1l-1.3-14.3h19.7V23.4z M79,83.6l-15.5,4.2V65.5h17.1L79,83.6z"/>
	</g>
</g>
</svg>
