<svg width="33" height="33" viewBox="0 0 33 33" fill="none" xmlns="http://www.w3.org/2000/svg">
<path d="M29.8607 0.824951H3.13919C2.52542 0.824951 1.93678 1.06877 1.50278 1.50278C1.06877 1.93678 0.824951 2.52542 0.824951 3.13919V29.8607C0.824951 30.4745 1.06877 31.0631 1.50278 31.4971C1.93678 31.9311 2.52542 32.175 3.13919 32.175H29.8607C30.4745 32.175 31.0631 31.9311 31.4971 31.4971C31.9311 31.0631 32.175 30.4745 32.175 29.8607V3.13919C32.175 2.52542 31.9311 1.93678 31.4971 1.50278C31.0631 1.06877 30.4745 0.824951 29.8607 0.824951ZM10.169 27.5312H5.45561V12.5594H10.169V27.5312ZM7.80904 10.4847C7.27438 10.4817 6.7526 10.3203 6.30955 10.0211C5.86649 9.72179 5.52202 9.29798 5.3196 8.80312C5.11718 8.30826 5.06588 7.76452 5.17219 7.24054C5.2785 6.71655 5.53764 6.2358 5.91692 5.85895C6.29619 5.48211 6.7786 5.22606 7.30325 5.12312C7.82791 5.02017 8.37131 5.07496 8.86486 5.28055C9.35841 5.48614 9.78 5.83333 10.0764 6.2783C10.3728 6.72327 10.5308 7.24607 10.5304 7.78073C10.5354 8.13869 10.4684 8.494 10.3332 8.82548C10.198 9.15696 9.99741 9.45783 9.74347 9.71015C9.48952 9.96247 9.18737 10.1611 8.85502 10.2942C8.52268 10.4272 8.16695 10.492 7.80904 10.4847ZM27.5421 27.5443H22.8309V19.365C22.8309 16.9528 21.8055 16.2082 20.4818 16.2082C19.0842 16.2082 17.7126 17.2619 17.7126 19.426V27.5443H12.9992V12.5703H17.5319V14.6451H17.5928C18.0479 13.7242 19.6415 12.1501 22.0733 12.1501C24.7032 12.1501 27.5443 13.7111 27.5443 18.283L27.5421 27.5443Z" fill="#EDEDED"/>
</svg>
