<?xml version="1.0" encoding="utf-8"?>
<!-- Generator: Adobe Illustrator 27.9.2, SVG Export Plug-In . SVG Version: 6.00 Build 0)  -->
<svg version="1.1" id="Camada_1" xmlns="http://www.w3.org/2000/svg" xmlns:xlink="http://www.w3.org/1999/xlink" x="0px" y="0px"
	 viewBox="0 0 2000 2000" style="enable-background:new 0 0 2000 2000;" xml:space="preserve">
<style type="text/css">
	.st0{fill:#FEFEFE;}
	.st1{fill:#FFFFFF;}
	.st2{fill:#330000;}
</style>
<g>
	<path d="M379.3,95.4c414.4,0,828.8,0,1243.2,0c6.8,2.3,13.9,0.7,20.8,1.4c70,7.5,129.5,37.2,180.9,84.6
		c52.1,48.1,84.9,107.2,99.5,176.5c2.6,12.3,1.7,25,3.9,37.4c0,400.9,0,801.7,0,1202.6c-2.2,6.5-1.1,13.4-1.4,20
		c-2.3,40.8-15.8,78.3-35.1,113.6c-40.6,74.1-100.5,126.3-180.2,155.2c-26.6,9.7-53.9,15.8-82.5,16.5c-20.9,0.5-41.7,0.6-62.5,0.6
		c-389.4,0.1-778.8-0.2-1168.2,0.3c-69.9,0.1-132.7-20-188.6-60.8c-72.6-52.9-117.2-124-132.8-212.8c-2.4-13.6-2.6-27.5-2.6-41.2
		c-0.1-393.2-0.2-786.4,0-1179.6c0.1-81.1,31.2-150.3,85.2-209.7c42.8-47.1,95.2-78.7,156.4-95.9c18.3-5.1,36.8-7.1,55.6-7.7
		C373.6,96.2,376.6,97.1,379.3,95.4z"/>
	<path class="st0" d="M343.1,42.7c-17.9,3.6-36.2,4.4-53.9,9C158.9,85.6,73.7,167,33.5,295.3c-9.7,31-13.3,63.2-13.3,95.7
		c0,405.6-0.2,811.1,0.1,1216.7c0.1,160.4,107.1,297.6,262,337.2c27.8,7.1,56.1,10.7,84.8,10.7c422.4,0,844.7,0.3,1267.1-0.1
		c167.8-0.2,307.8-116.2,340.8-280.6c2.8-13.9,4.4-28,6.5-42.1c0,105.7-0.1,211.4,0.2,317.2c0,6.2-1,7.7-7.6,7.7
		c-649.3-0.2-1298.6-0.2-1947.9,0c-6.7,0-8.1-1.4-8.1-8.1c0.2-632.8,0.2-1265.6,0-1898.4c0-7.2,1.8-8.5,8.6-8.5
		C132.3,42.8,237.7,42.7,343.1,42.7z"/>
	<path class="st0" d="M1981.6,359.9c-4-9.8-3.6-20.4-5.3-30.5c-23.1-140.8-140.6-258.6-281-281.2c-12.2-2-24.4-3.7-36.6-5.5
		c105.1,0,210.3,0.1,315.4-0.2c6.4,0,7.7,1.3,7.6,7.6C1981.5,153.4,1981.6,256.7,1981.6,359.9z"/>
	<path class="st1" d="M816.2,1186.9c-47.6,0-95.2,0.2-142.8-0.2c-7.2-0.1-10,2.2-12.2,9c-18.9,59.5-38.1,118.8-57.3,178.1
		c-4.9,15.2-6.8,16.6-22.5,16.6c-46.7,0-93.3,0-140,0c-19.4,0-21.5-2.9-15.2-21.1c30.4-87.7,60.9-175.3,91.3-263
		c55.9-160.9,111.7-321.9,167.7-482.8c9.2-26.3,15.1-53.1,14.7-81.1c-0.2-11.7,1.8-13.3,13.7-13.3c66.6,0,133.1,0.1,199.7-0.2
		c9.9,0,14.7,3.1,18.1,12.8c97.9,277.1,196.1,554.1,294.2,831.1c5.1,14.4,2.8,17.6-12.7,17.6c-53.5,0-107-0.2-160.5,0.2
		c-10.5,0.1-15.7-3.8-19-13.6c-20.4-60.3-41.4-120.3-61.8-180.6c-2.5-7.4-5.9-9.8-13.7-9.8C910.7,1187.1,863.5,1186.9,816.2,1186.9z
		"/>
	<path class="st1" d="M1501.2,1067.3c0,100.4,0,200.9,0,301.3c0,26.3,0,26.3-26.2,26.3c-45.7,0-91.4,0-137.1,0
		c-17.4,0-20-2.6-20-19.9c0-205.5,0-411.1,0-616.6c0-16,1.7-17.7,17.5-17.7c50.1,0,100.1,0,150.2,0c13.1,0,15.3,1.9,15.4,15.1
		c0.3,36.7,0.3,73.4,0.3,110.1C1501.2,933,1501.2,1000.1,1501.2,1067.3z"/>
	<path class="st1" d="M1309.3,568.4c-2.2-55.6,42.2-101.1,102.2-101.5c60.3-0.4,101.2,40.8,101.2,101.3
		c0,59.6-41.6,102.7-97.6,104.1C1349,673.9,1307.6,626.2,1309.3,568.4z"/>
	<path class="st2" d="M814.3,679.7c8.5,29.5,15.9,57.6,24.6,85.4c25.2,80.9,50.8,161.6,76.2,242.4c0.4,1.2,0.6,2.4,1.1,3.5
		c4.1,8.6,0.6,10.1-7.8,10.1c-61.6-0.3-123.1-0.2-184.7-0.2c-12.1,0-11.7,0.1-8.2-11.1c31.4-100.3,64.2-200.3,91.3-302
		C809.2,699.1,809.8,689.8,814.3,679.7z"/>
</g>
</svg>
