<?xml version="1.0" encoding="utf-8"?>
<!-- Generator: Adobe Illustrator 27.9.2, SVG Export Plug-In . SVG Version: 6.00 Build 0)  -->
<svg version="1.1" id="Camada_1" xmlns="http://www.w3.org/2000/svg" xmlns:xlink="http://www.w3.org/1999/xlink" x="0px" y="0px"
	 viewBox="0 0 2500 2500" style="enable-background:new 0 0 2500 2500;" xml:space="preserve">
<style type="text/css">
	.st0{fill-rule:evenodd;clip-rule:evenodd;fill:#3174B9;}
	.st1{fill-rule:evenodd;clip-rule:evenodd;fill:#CA3132;}
</style>
<g>
	<path class="st0" d="M1004.9,1305.9c0,0-70.5,41,50.2,54.9c146.3,16.8,221,14.3,382.1-16.2c0,0,42.4,26.6,101.6,49.6
		C1177.6,1549,721.2,1385.2,1004.9,1305.9z M960.8,1103.8c0,0-79.1,58.6,41.8,71.1c156.3,16.2,279.6,17.5,493.2-23.6
		c0,0,29.5,30,75.9,46.3C1134.8,1325.3,648.2,1207.6,960.8,1103.8z"/>
	<path class="st1" d="M1333,761.1c89.1,102.6-23.4,194.8-23.4,194.8s226.1-116.7,122.3-262.9c-96.9-136.2-171.3-204,231.3-437.4
		C1663,255.7,1031.3,413.4,1333,761.1z"/>
	<path class="st0" d="M1810.8,1455.4c0,0,52.2,43-57.5,76.3c-208.5,63.2-868,82.2-1051.2,2.5c-65.8-28.7,57.6-68.3,96.4-76.7
		c40.5-8.7,63.6-7.2,63.6-7.2c-73.2-51.6-473.4,101.3-203.2,145.1C1395.7,1714.8,2001.8,1541.5,1810.8,1455.4L1810.8,1455.4z
		 M1038.8,894.5c0,0-335.4,79.7-118.8,108.6c91.5,12.3,273.7,9.4,443.7-4.8c138.8-11.7,278.2-36.6,278.2-36.6s-48.9,21-84.4,45.1
		c-340.7,89.6-998.7,47.9-809.2-43.7C908.6,885.7,1038.8,894.5,1038.8,894.5L1038.8,894.5z M1640.6,1230.8
		c346.2-179.9,186.2-352.8,74.4-329.5c-27.4,5.7-39.5,10.6-39.5,10.6s10.2-15.9,29.6-22.8c221.1-77.7,391.1,229.2-71.3,350.8
		C1633.7,1239.9,1639,1235.1,1640.6,1230.8z"/>
	<path class="st1" d="M1431.9-121.4c0,0,191.7,191.8-181.9,486.8c-299.6,236.7-68.3,371.6-0.1,525.8
		c-174.9-157.8-303.3-296.8-217.2-426C1159.1,275.4,1509.2,183.3,1431.9-121.4L1431.9-121.4z"/>
	<path class="st0" d="M1072.9,1718.5c332.3,21.2,842.7-11.8,854.9-169c0,0-23.3,59.6-274.7,106.9c-283.7,53.4-633.7,47.2-841.1,13
		C811.9,1669.3,854.6,1704.4,1072.9,1718.5z"/>
	<path class="st1" d="M1912.5,2000.5h-10.2v-5.7h27.3v5.7h-10.2v28.3h-7.1v-28.3H1912.5z M1966.9,2001.9h-0.1l-10,26.9h-4.6
		l-10-26.9h-0.1v26.9h-6.7v-34h9.8l9.2,24l9.2-24h9.8v34h-6.5L1966.9,2001.9L1966.9,2001.9L1966.9,2001.9z M1018.5,2319.3
		c-31.3,27.2-64.5,42.5-94.2,42.5c-42.4,0-65.4-25.5-65.4-66.2c0-44.1,24.7-76.4,123.1-76.4h36.5V2319.3L1018.5,2319.3z
		 M1104.9,2417v-302.1c0-77.2-44-128.2-150.2-128.2c-62,0-116.3,15.3-160.3,34.8l12.7,53.5c34.8-12.7,79.7-24.6,123.8-24.6
		c61.1,0,87.5,24.6,87.5,75.5v38.2h-30.6c-148.5,0-215.6,57.6-215.6,144.3c0,74.6,44.1,117.1,127.4,117.1
		c53.5,0,93.4-22.1,130.7-54.3l6.7,45.8h67.8V2417z M1393.7,2417h-107.9l-129.8-422.6h94.2l80.6,259.7l17.9,78
		c40.6-112.9,69.5-227.5,83.9-337.7h91.6C1499.8,2133.5,1455.5,2286.3,1393.7,2417z M1807.7,2319.3c-31.4,27.2-64.6,42.5-94.2,42.5
		c-42.4,0-65.4-25.5-65.4-66.2c0-44.1,24.7-76.4,123.1-76.4h36.5V2319.3z M1894.2,2417v-302.1c0-77.2-44.1-128.2-150.2-128.2
		c-62,0-116.3,15.3-160.4,34.8l12.7,53.5c34.8-12.7,79.8-24.6,123.9-24.6c61,0,87.4,24.6,87.4,75.5v38.2h-30.6
		c-148.5,0-215.6,57.6-215.6,144.3c0,74.6,44,117.1,127.3,117.1c53.5,0,93.4-22.1,130.7-54.3l6.8,45.8h67.9V2417z M677.5,2488.7
		c-24.7,36-64.6,64.6-108.1,80.6l-42.7-50.3c33.2-17,61.6-44.5,74.8-70.1c11.5-22.8,16.2-52.2,16.2-122.4v-482.5h92v475.8
		C709.7,2413.8,702.2,2451.8,677.5,2488.7z"/>
</g>
</svg>
