<?xml version="1.0" encoding="utf-8"?>
<!-- Generator: Adobe Illustrator 27.9.2, SVG Export Plug-In . SVG Version: 6.00 Build 0)  -->
<svg version="1.1" id="Camada_1" xmlns="http://www.w3.org/2000/svg" xmlns:xlink="http://www.w3.org/1999/xlink" x="0px" y="0px"
	 viewBox="0 0 2500 2500" style="enable-background:new 0 0 2500 2500;" xml:space="preserve">
<style type="text/css">
	.st0{fill-rule:evenodd;clip-rule:evenodd;}
</style>
<g>
	<path class="st0" d="M1022.3,1326.1c0,0-65.5,38.1,46.6,51c135.9,15.6,205.3,13.3,355-15c0,0,39.4,24.7,94.4,46.1
		C1182.8,1551.9,758.6,1399.8,1022.3,1326.1z M981.3,1138.3c0,0-73.5,54.4,38.8,66c145.2,15,259.8,16.2,458.2-21.9
		c0,0,27.4,27.9,70.5,43C1143,1344.1,690.9,1234.8,981.3,1138.3z"/>
	<path class="st0" d="M1327.1,820c82.8,95.3-21.7,181-21.7,181s210-108.5,113.6-244.3c-90-126.6-159.1-189.5,214.9-406.4
		C1633.8,350.3,1046.8,496.8,1327.1,820z"/>
	<path class="st0" d="M1771.1,1465c0,0,48.5,39.9-53.4,70.9c-193.7,58.7-806.5,76.3-976.7,2.3c-61.1-26.7,53.5-63.5,89.6-71.3
		c37.6-8.1,59.1-6.7,59.1-6.7c-68-47.9-439.8,94.1-188.8,134.8C1385.3,1706,1948.5,1545,1771.1,1465L1771.1,1465z M1053.8,943.9
		c0,0-311.6,74-110.3,100.9c85,11.4,254.3,8.8,412.3-4.5c129-10.9,258.5-34,258.5-34s-45.4,19.5-78.4,41.9
		c-316.5,83.2-927.9,44.5-751.8-40.6C932.8,935.7,1053.8,943.9,1053.8,943.9L1053.8,943.9z M1612.9,1256.4
		c321.7-167.1,173-327.8,69.1-306.1c-25.4,5.3-36.7,9.9-36.7,9.9s9.4-14.8,27.5-21.2c205.4-72.2,363.4,213-66.2,326
		C1606.5,1264.8,1611.4,1260.3,1612.9,1256.4z"/>
	<path class="st0" d="M1419,0c0,0,178.1,178.2-169,452.3c-278.4,219.9-63.5,345.3-0.1,488.5C1087.4,794.2,968.1,665.1,1048.1,545
		C1165.6,368.6,1490.9,283.1,1419,0L1419,0z"/>
	<path class="st0" d="M1085.5,1709.4c308.7,19.7,783-11,794.3-157.1c0,0-21.6,55.4-255.2,99.4c-263.6,49.6-588.8,43.9-781.5,12.1
		C843,1663.7,882.6,1696.4,1085.5,1709.4z"/>
	<path class="st0" d="M1865.5,1971.5h-9.4v-5.3h25.3v5.3h-9.4v26.3h-6.6v-26.3H1865.5z M1916.1,1972.8h-0.1l-9.3,25h-4.3l-9.3-25
		h-0.1v25h-6.3v-31.6h9.1l8.6,22.3l8.6-22.3h9.1v31.6h-6L1916.1,1972.8L1916.1,1972.8L1916.1,1972.8z M1034.9,2267.7
		c-29.1,25.2-59.9,39.5-87.5,39.5c-39.4,0-60.8-23.7-60.8-61.5c0-41,22.9-71,114.4-71h33.9V2267.7L1034.9,2267.7z M1115.2,2358.4
		v-280.7c0-71.7-40.9-119.1-139.5-119.1c-57.6,0-108,14.3-148.9,32.4l11.8,49.7c32.4-11.8,74-22.8,115.1-22.8
		c56.8,0,81.3,22.8,81.3,70.2v35.5h-28.4c-138,0-200.3,53.5-200.3,134c0,69.3,41,108.8,118.3,108.8c49.7,0,86.8-20.5,121.4-50.5
		l6.3,42.6h63V2358.4z M1383.5,2358.4h-100.2l-120.6-392.6h87.5l74.9,241.3l16.7,72.5c37.7-104.9,64.6-211.3,78-313.8h85.1
		C1482.1,2095.1,1441,2237,1383.5,2358.4z M1768.1,2267.7c-29.2,25.2-60,39.5-87.5,39.5c-39.4,0-60.8-23.7-60.8-61.5
		c0-41,22.9-71,114.4-71h33.9V2267.7z M1848.5,2358.4v-280.7c0-71.7-41-119.1-139.5-119.1c-57.6,0-108,14.3-149.1,32.4l11.8,49.7
		c32.4-11.8,74.1-22.8,115.2-22.8c56.7,0,81.2,22.8,81.2,70.2v35.5h-28.4c-138,0-200.3,53.5-200.3,134
		c0,69.3,40.9,108.8,118.2,108.8c49.7,0,86.8-20.5,121.4-50.5l6.4,42.6h63.1V2358.4z M718.1,2425.1c-22.9,33.5-60,60-100.5,74.9
		l-39.7-46.7c30.8-15.8,57.3-41.3,69.5-65.1c10.6-21.2,15-48.5,15-113.7v-448.3h85.4v442.1C748,2355.4,741,2390.8,718.1,2425.1z"/>
</g>
</svg>
