<?xml version="1.0" encoding="utf-8"?>
<!-- Generator: Adobe Illustrator 27.9.2, SVG Export Plug-In . SVG Version: 6.00 Build 0)  -->
<svg version="1.1" id="Camada_1" xmlns="http://www.w3.org/2000/svg" xmlns:xlink="http://www.w3.org/1999/xlink" x="0px" y="0px"
	 viewBox="0 0 128 127" style="enable-background:new 0 0 128 127;" xml:space="preserve">
<style type="text/css">
	.st0{fill-rule:evenodd;clip-rule:evenodd;}
</style>
<path class="st0" d="M2.4,1.7h123.2v123.2H2.4V1.7z M34.8,104.6L34.8,104.6c2.7,5.8,8.1,10.6,17.4,10.6c10.3,0,17.3-5.5,17.3-17.4
	V58.2H57.9v39.4c0,5.8-2.4,7.3-6.2,7.3c-4,0-5.6-2.7-7.4-6L34.8,104.6L34.8,104.6L34.8,104.6z M85.2,97.9l-9.4,5.5
	c3.4,6.7,10.3,11.8,21.1,11.8c11,0,19.2-5.7,19.2-16.1c0-9.7-5.5-14-15.4-18.2l-2.9-1.2c-5-2.2-7.1-3.6-7.1-7c0-2.8,2.2-5,5.5-5
	c3.3,0,5.5,1.4,7.4,5l9-5.8c-3.8-6.7-9.1-9.3-16.5-9.3c-10.3,0-17,6.6-17,15.3c0,9.4,5.5,13.9,13.9,17.4l2.9,1.2
	c5.3,2.3,8.4,3.7,8.4,7.7c0,3.3-3.1,5.7-7.9,5.7C90.9,104.9,87.6,102,85.2,97.9z"/>
</svg>
