<?xml version="1.0" encoding="utf-8"?>
<!-- Generator: Adobe Illustrator 27.9.2, SVG Export Plug-In . SVG Version: 6.00 Build 0)  -->
<svg version="1.1" id="Camada_1" xmlns="http://www.w3.org/2000/svg" xmlns:xlink="http://www.w3.org/1999/xlink" x="0px" y="0px"
	 viewBox="0 0 57 58" style="enable-background:new 0 0 57 58;" xml:space="preserve">
<style type="text/css">
	.st0{fill:#2EBC06;}
</style>
<path class="st0" d="M28.5,0.5L28.5,0.5C44.2,0.5,57,13.2,57,29l0,0c0,15.7-12.8,28.5-28.5,28.5l0,0C12.8,57.5,0,44.7,0,29l0,0
	C0,13.2,12.8,0.5,28.5,0.5z"/>
<path d="M41.9,13.3H15.1c-0.6,0-1.2,0.2-1.6,0.7s-0.7,1-0.7,1.6v26.7c0,0.6,0.2,1.2,0.7,1.6c0.4,0.4,1,0.7,1.6,0.7h26.7
	c0.6,0,1.2-0.2,1.6-0.7c0.4-0.4,0.7-1,0.7-1.6V15.6c0-0.6-0.2-1.2-0.7-1.6C43.1,13.5,42.5,13.3,41.9,13.3z M22.2,40h-4.7V25h4.7V40z
	 M19.8,22.9c-0.5,0-1.1-0.2-1.5-0.5c-0.4-0.3-0.8-0.7-1-1.2c-0.2-0.5-0.3-1-0.1-1.6c0.1-0.5,0.4-1,0.7-1.4c0.4-0.4,0.9-0.6,1.4-0.7
	c0.5-0.1,1.1,0,1.6,0.2c0.5,0.2,0.9,0.6,1.2,1c0.3,0.4,0.5,1,0.5,1.5c0,0.4-0.1,0.7-0.2,1c-0.1,0.3-0.3,0.6-0.6,0.9
	c-0.3,0.3-0.6,0.5-0.9,0.6C20.5,22.9,20.2,22.9,19.8,22.9z M39.5,40h-4.7v-8.2c0-2.4-1-3.2-2.3-3.2c-1.4,0-2.8,1.1-2.8,3.2V40H25V25
	h4.5v2.1h0.1c0.5-0.9,2-2.5,4.5-2.5c2.6,0,5.5,1.6,5.5,6.1L39.5,40z"/>
</svg>
