<?xml version="1.0" encoding="utf-8"?>
<!-- Generator: Adobe Illustrator 27.9.2, SVG Export Plug-In . SVG Version: 6.00 Build 0)  -->
<svg version="1.1" id="Camada_1" xmlns="http://www.w3.org/2000/svg" xmlns:xlink="http://www.w3.org/1999/xlink" x="0px" y="0px"
	 viewBox="0 0 127 128" style="enable-background:new 0 0 127 128;" xml:space="preserve">
<path d="M100.2,100.9c4.5-1.9,9.8-2.6,16.6-2.4c-0.2-1.3-2.6-2.9-4.4-4c-0.6-0.4-1.1-0.7-1.5-1c-2.7-2-5.7-4.1-8.6-5.9
	c-0.9-0.6-2.3-1.1-3.6-1.5c-0.8-0.3-1.7-0.6-2.3-0.9c-0.7-0.3-1.6-0.6-2.6-0.9c-2.4-0.7-5.2-1.6-6.1-2.9c-2.3-3.1-4-6.8-5.6-10.6
	c-0.2-0.4-0.3-0.8-0.5-1.2c-0.9-2-1.8-4-2.8-6c-1.1-2.3-2.1-4.6-3.1-6.8c-0.4-0.9-0.7-1.8-1-2.6c-0.4-1.1-0.8-2.2-1.4-3.3
	C67,38.6,57.8,28.3,46.5,21c-3.7-2.4-7.8-4.5-12.4-6c-1.4-0.4-2.9-0.5-4.5-0.6c-1.3-0.1-2.7-0.1-3.9-0.4H24c-1-0.3-2-1.1-2.8-1.9
	c-0.4-0.4-0.8-0.8-1.2-1c-2.7-1.8-5.3-3.1-8.5-4.4C10.4,6.2,7.2,5,6.1,5.9C5.4,6,5,6.3,4.8,7c-0.7,1-0.1,2.6,0.3,3.6
	c0.9,1.8,1.9,3.2,3,4.6c0.6,0.7,1.1,1.4,1.7,2.2c0.3,0.4,0.5,0.8,0.8,1.2c1.3,1.8,2.6,3.7,3.5,5.6c1.2,2.6,2,5.4,2.9,8.1
	c0.7,2.4,1.5,4.8,2.4,7.1c0.8,1.8,2,3.9,3.1,5.6c0.3,0.5,0.8,0.9,1.3,1.4c0.8,0.8,1.6,1.5,1.9,2.6c0.8,1.4-0.7,5.5-1.6,7.9
	c-0.2,0.6-0.4,1.1-0.5,1.4c-2.2,7.2-1.8,17.1,0.8,23.3c0.1,0.2,0.2,0.4,0.3,0.7c0.9,2.3,1.9,4.7,4.4,5.4c0.1-0.1,0.1-0.1,0.1-0.1
	s0.1,0,0.2-0.1c0.1-1,0.2-2,0.3-3c0.4-3.7,0.8-7.2,2.1-10.2c0.6-1.5,1.6-2.8,2.6-4c0.5-0.6,1.1-1.3,1.5-2c0.5,0.3,0.7,1.1,0.9,1.9
	c0.1,0.4,0.2,0.9,0.4,1.3c0.1,0.2,0.2,0.4,0.2,0.6c1,2.5,2.2,5.3,3.4,7.8c2.8,5.6,6,11,9.6,15.9c1.2,1.7,2.9,3.7,4.5,5.2
	c0.2,0.2,0.5,0.4,0.7,0.6c0.5,0.3,0.9,0.7,1.3,1.2h0.2v0.3c-1.6-0.6-2.9-1.9-4.1-3.2c-0.7-0.7-1.4-1.5-2.2-2
	c-3.9-3-8.5-7.4-11.2-11.7c-0.8-1.8-1.7-3.6-2.6-5.4c-0.3-0.6-0.6-1.2-0.9-1.8c0,0,0-0.1,0-0.2C36,79,36,79.4,35.9,80
	c0,0.3-0.1,0.6-0.2,1c-0.3,1.2-0.5,2.5-0.6,3.8c-0.4,3.1-0.7,6-3.5,7.1c-4.4,1.8-7.6-3-9-5.2c-4.4-7.3-5.6-19.5-2.5-29.4
	c0.2-0.8,0.4-1.6,0.6-2.4c0.3-1.5,0.6-3,1.4-4.2c-0.2-1.1-0.8-1.6-1.3-2.1c-0.3-0.3-0.6-0.5-0.8-0.8c-1.2-1.7-2.2-3.6-3.2-5.4
	c-1.4-2.7-2.4-5.9-3.5-8.9c-0.3-1-0.6-1.9-1-2.8c-0.3-0.8-0.5-1.5-0.7-2.3s-0.4-1.6-0.7-2.3c-0.8-1.8-2.2-3.6-3.4-5.2
	c-0.3-0.4-0.7-0.9-1-1.3c-0.3-0.5-0.8-1.1-1.3-1.7c-2.4-3.1-6.1-7.8-4.1-12.5c3.6-9,16.2-2.2,21.1,1c0.5,0.3,1,0.8,1.5,1.3
	c0.8,0.7,1.6,1.4,2.4,1.8c1.1,0,2.1,0.1,3.2,0.2c1.1,0.1,2.1,0.1,3.2,0.2c0.4,0.1,0.7,0.2,1,0.2c3.6,0.9,7,1.7,9.9,3.3
	C58.4,22.2,68,31.2,76.8,46c1.2,2,2,4.1,2.9,6.3c0.5,1.2,1,2.5,1.5,3.7c2.1,5.1,4.5,10.4,7,15.2c0.3,0.6,0.6,1.3,0.9,2
	c0.8,1.7,1.5,3.4,2.6,4.8c0.4,0.6,1.3,0.9,2.2,1.2c0.4,0.1,0.9,0.3,1.2,0.5c1.1,0.6,2.3,1.1,3.5,1.6c1.9,0.8,3.8,1.7,5.4,2.7
	c5,3.1,9.8,6.9,14.2,10.8c0.9,0.8,1.6,1.8,2.3,2.8c0.6,0.8,1.2,1.7,1.9,2.4v0.8c-1.4,0.4-2.7,0.9-4.1,1.2c-1.5,0.4-2.9,0.5-4.3,0.7
	s-2.8,0.3-4.3,0.7c-0.2,0.1-0.4,0.1-0.6,0.2c-1.7,0.5-3.7,1.1-5.4,1.2c0.1,0.1,0.2,0.2,0.2,0.2c0.8,2.4,4.3,4.5,7.2,6.2
	c1,0.6,1.9,1.1,2.6,1.6c3.3,2.4,6.4,5.4,8.9,8.8c0.4,0.4,0.9,0.8,1.3,1.3c0.4,0.4,0.9,0.8,1.3,1.3c0.3,0.4,0.5,0.9,0.7,1.4
	s0.4,1,0.7,1.4v0.3c-0.8-0.3-1.3-0.8-1.8-1.4c-0.3-0.3-0.6-0.6-1-0.9c-0.8-0.6-1.6-1.2-2.4-1.8c-1.1-0.8-2.2-1.6-3.2-2.3
	c-1.7-1.1-3.5-1.9-5.3-2.8c-1.7-0.8-3.5-1.6-5.1-2.7c-1.9-1.2-3.7-2.6-5.5-4c-1.6-1.2-3.4-3.6-4.5-5.3c-0.3-0.4-0.4-0.9-0.6-1.3
	c-0.2-0.6-0.4-1.1-0.8-1.5c0.1-1.2,1.3-1.6,2.4-1.9C99.5,101.1,99.9,101,100.2,100.9z"/>
<path d="M25.8,22.9c1-0.3,2.1-0.4,3.5-0.4c0.3,0.3,0.6,0.5,1,0.8c0.5,0.4,1.1,0.7,1.4,1.3c0.2,0.3,0.3,0.5,0.4,0.8
	c0.2,0.3,0.3,0.7,0.6,1c0,2.1-0.6,3.5-1.8,4.4c0,0-0.1,0.1-0.2,0.2c-0.3-0.7-0.7-1.4-1-2.1s-0.6-1.4-1-2.1c-0.3-0.5-0.7-0.9-1.1-1.4
	C27,24.7,26.4,24,26,23.1h-0.2V22.9z"/>
</svg>
