<?xml version="1.0" encoding="utf-8"?>
<!-- Generator: Adobe Illustrator 27.9.2, SVG Export Plug-In . SVG Version: 6.00 Build 0)  -->
<svg version="1.1" id="Camada_1" xmlns="http://www.w3.org/2000/svg" xmlns:xlink="http://www.w3.org/1999/xlink" x="0px" y="0px"
	 viewBox="0 0 2000 2000" style="enable-background:new 0 0 2000 2000;" xml:space="preserve">
<style type="text/css">
	.st0{fill:#FFFFFF;}
</style>
<g>
	<g>
		<path d="M89.5,1586c0-390.2,0-780.4,0-1170.6c0.4-2.2,1.3-4.4,1.4-6.5c1.7-24.8,6.5-49.1,14.4-72.6
			c45.2-134.9,166.1-222.4,308.3-222.4c390.4-0.1,781,0,1171.5,0c27.5,0,54.4,3.2,80.9,9.8c143.8,36.2,242.8,164.5,242.9,314.9
			c0.1,374.7,0.2,749.5-0.2,1124.2c0,23.8-2.6,48.1-7.5,71.3c-27.3,127.2-127.1,223.6-255,247.7c-12.8,2.5-25.8,3.8-38.7,5.8
			c-405.4,0-810.8,0-1216.2,0c-1.6-0.4-3.3-1.2-5-1.3c-38.4-2.8-75.3-12-110-28.8c-98.3-47.7-158.8-125-180.9-232.1
			C92.7,1612.5,91.4,1599.2,89.5,1586z M499.2,967.4c0,128.6,0,257.3,0,385.8c0,12.3,1.9,14.1,13.9,14.1c44.9,0,90,0,134.9,0
			c13,0,14.7-1.7,14.7-14.9c0-76.6,0.1-153.2-0.1-229.7c0-7.7,2.2-10,9.8-9.7c21.3,1,42.4,1.4,63.6,1.5
			c55.1,0.2,109.5-4.8,161.9-23.3c69.3-24.5,121.7-68.3,151.3-136.5c22.7-52.4,26.8-107.5,18.7-163.4
			c-6.7-45.9-23.8-87.5-53.7-123.4c-37-44.6-85.2-71.2-140.1-86.8c-43.6-12.3-88.4-16.4-133.5-15.6c-76,1.2-152.1,2.9-228.2,4.4
			c-12.9,0.2-13.5,0.5-13.5,14C499.2,711.6,499.2,839.5,499.2,967.4z M1153.8,1270.1c0,21.3,0.2,42.4-0.1,63.7
			c-0.1,8.2,3.3,13.5,10.7,16.6c9.4,3.8,18.7,7.9,28.1,11.1c36.3,12.3,74.1,18.1,112.1,20.5c49.4,3.1,98.4,1.2,146.4-12.8
			c84.9-24.7,135.6-85.5,141.7-161.6c4.5-55.5-11.3-103.4-54.4-140.4c-24.5-21.3-53.1-35.9-82.4-49.2c-26.6-12.1-54.2-22-81.1-33.8
			c-18.4-8.1-37.3-15.8-51.7-30.8c-19.5-20.1-12.2-50.4,14.5-58.6c11.2-3.4,23.1-5.8,34.8-6.3c40.7-2,80.7,3.4,119.8,14.6
			c17.3,5,33.9,12.7,50.7,19.6c10.7,4.5,18.7,1.9,18.7-7.4c0.1-41.1,0-82.4,0-123.6c0-7.7-3.4-12.9-10.9-15.4
			c-10.8-3.4-21.4-7.9-32.4-10.5c-51.3-12-103.5-14.4-155.9-11.8c-42.3,2.2-82.6,12.7-119.7,34.4c-98.6,57.6-118.5,194.4-39.1,271.6
			c27.1,26.3,59.3,44.5,93.3,60c28.6,13,58.5,23.7,87.2,36.8c12.2,5.6,23.7,13.5,34.1,22c9.8,8.1,14.1,19.5,10.6,32.7
			c-3.5,13.4-12.5,21.4-25.1,26.2c-19.9,7.4-40.5,8.7-61.2,8.2c-62.5-1.5-121.9-15.8-176.8-46.8c-9.3-5.1-12.2-3.5-12.2,7.2
			C1153.8,1227.7,1153.8,1248.8,1153.8,1270.1z"/>
		<path class="st0" d="M1607.5,1887.7c12.9-1.9,26-3.4,38.7-5.8c128-24.2,227.9-120.6,255-247.7c4.9-23.2,7.5-47.6,7.5-71.3
			c0.4-374.7,0.4-749.5,0.2-1124.2c0-150.4-99.2-278.6-242.9-314.9c-26.6-6.7-53.7-9.8-80.9-9.8c-390.4,0-781-0.1-1171.5,0
			c-142.1,0-263.2,87.6-308.3,222.4C97.3,360,92.5,384.2,90.8,409c-0.1,2.2-1,4.4-1.4,6.5c0-101,0-202.1,0-303.3
			c607.1,0,1213.9,0,1821.1,0c0,591.9,0,1183.7,0,1775.6C1809.6,1887.7,1708.5,1887.7,1607.5,1887.7z"/>
		<path class="st0" d="M89.5,1586c2,13.1,3.3,26.5,6,39.4c22,107.1,82.6,184.5,180.9,232.1c34.6,16.8,71.5,26,110,28.8
			c1.6,0.1,3.3,0.9,5,1.3c-100.6,0-201.3,0-301.7,0C89.5,1787.3,89.5,1686.6,89.5,1586z"/>
		<path class="st0" d="M499.2,967.4c0-127.9,0-255.8,0-383.7c0-13.3,0.5-13.6,13.5-14c76-1.4,152.1-3.2,228.2-4.4
			c45.2-0.7,89.9,3.2,133.5,15.6c54.9,15.6,103.1,42.2,140.1,86.8c29.8,35.9,46.9,77.7,53.7,123.4c8.2,56.1,4,111.3-18.7,163.4
			c-29.6,68.2-82.1,111.9-151.3,136.5c-52.4,18.5-106.8,23.6-161.9,23.3c-21.3-0.1-42.4-0.5-63.6-1.5c-7.6-0.3-9.8,2-9.8,9.7
			c0.2,76.6,0.1,153.2,0.1,229.7c0,13.1-1.7,14.9-14.7,14.9c-44.9,0-90,0-134.9,0c-12.1,0-13.9-1.9-13.9-14.1
			C499.2,1224.7,499.2,1096,499.2,967.4z M664.2,972.2c23.6,0,46.6-0.1,69.6,0c32.2,0.2,63.6-4.7,93.6-15.7
			c34.1-12.4,61-33.6,73.2-69.5c6.5-19.3,8-39.8,6.2-60c-3.7-44.2-24.5-77.6-65.7-96.2c-25.1-11.3-51.8-16.7-79.4-17
			c-27.8-0.3-55.6,0-83.4,0.2c-4.7,0-9.3,0.9-14.1,1.3C664.2,800.9,664.2,885.2,664.2,972.2z"/>
		<path class="st0" d="M1153.8,1270.1c0-21.3,0-42.4,0-63.7c0-10.7,2.9-12.4,12.2-7.2c54.9,31,114.1,45.2,176.8,46.8
			c20.7,0.4,41.4-0.9,61.2-8.2c12.5-4.7,21.6-12.7,25.1-26.2c3.5-13.3-0.7-24.7-10.6-32.7c-10.5-8.6-21.8-16.6-34.1-22
			c-28.8-13-58.5-23.7-87.2-36.8c-33.9-15.4-66.2-33.6-93.3-60c-79.4-77.2-59.6-214,39.1-271.6c37.1-21.6,77.3-32.2,119.7-34.4
			c52.5-2.7,104.5-0.2,155.9,11.8c11,2.6,21.6,6.9,32.4,10.5c7.6,2.4,10.9,7.6,10.9,15.4c0,41.1,0.1,82.4,0,123.6
			c0,9.3-8,11.9-18.7,7.4c-16.8-6.9-33.3-14.6-50.7-19.6c-39.1-11.2-79.1-16.7-119.8-14.6c-11.8,0.5-23.7,2.8-34.8,6.3
			c-26.7,8.2-34,38.5-14.5,58.6c14.4,14.9,33.3,22.7,51.7,30.8c26.7,11.8,54.4,21.7,81.1,33.8c29.2,13.3,57.7,28,82.4,49.2
			c43.1,37.1,58.9,85,54.4,140.4c-6.1,76-57,136.9-141.7,161.6c-48,14-97,15.8-146.4,12.8c-38.2-2.4-75.8-8.2-112.1-20.5
			c-9.5-3.3-18.8-7.3-28.1-11.1c-7.3-3.1-10.8-8.3-10.7-16.6C1154,1312.5,1153.8,1291.4,1153.8,1270.1z"/>
		<path d="M664.2,972.2c0-86.9,0-171.3,0-256.7c4.8-0.4,9.4-1.3,14.1-1.3c27.8-0.2,55.6-0.4,83.4-0.2c27.6,0.3,54.3,5.7,79.4,17
			c41.1,18.7,62,51.9,65.7,96.2c1.7,20.2,0.3,40.5-6.2,60c-12.2,35.9-39.1,57-73.2,69.5c-30.1,11-61.5,15.9-93.6,15.7
			C710.8,972.1,687.8,972.2,664.2,972.2z"/>
	</g>
</g>
</svg>
