<?xml version="1.0" encoding="utf-8"?>
<!-- Generator: Adobe Illustrator 27.9.2, SVG Export Plug-In . SVG Version: 6.00 Build 0)  -->
<svg version="1.1" id="Camada_1" xmlns="http://www.w3.org/2000/svg" xmlns:xlink="http://www.w3.org/1999/xlink" x="0px" y="0px"
	 viewBox="0 0 720 720" style="enable-background:new 0 0 720 720;" xml:space="preserve">
<style type="text/css">
	.st0{fill:#FFFFFF;}
</style>
<g transform="translate(0.000000,720.000000) scale(0.100000,-0.100000)">
	<path class="st0" d="M3385,6830c-370-31-781-148-1129-322c-627-313-1120-809-1426-1433c-450-916-437-1938,35-2893l75-151l-277-822
		C455,590,389,383,397,371c6-9,20-17,32-19c16-3,21-10,21-33c0-27,3-30,23-23c71,22,647,206,1123,358l550,176l145-68
		c569-272,1149-370,1754-296c902,110,1714,612,2219,1374c409,616,614,1380,555,2077c-54,646-290,1241-693,1745
		c-396,496-960,872-1577,1052c-132,39-369,88-509,106C3925,6835,3521,6841,3385,6830z M4025,6156c580-87,1074-334,1485-746
		c400-399,638-872,706-1405c21-166,22-485,1-650c-71-565-326-1083-732-1490c-300-302-628-505-1025-636c-263-86-487-121-790-121
		c-249-1-392,15-605,67c-290,70-482,152-807,344c-25,15-43,10-488-132c-254-81-466-145-470-142c-5,3,57,200,136,438
		c79,237,144,443,144,456s-26,65-59,115c-356,553-491,1156-400,1791c53,371,180,697,391,1001c440,637,1131,1044,1908,1124
		C3539,6182,3906,6174,4025,6156z"/>
	<path class="st0" d="M2525,5227c-62-21-114-58-191-138c-170-178-250-364-261-614c-13-287,99-604,352-995
		c423-653,848-1036,1410-1270c288-120,476-182,600-200c93-12,277,15,391,59c103,40,247,134,311,204c98,108,183,348,183,519
		c0,71-2,80-27,108c-51,56-685,387-760,397c-68,9-95-10-207-141c-174-203-228-256-259-256c-36,0-277,121-392,197
		c-281,186-515,441-698,765c-15,26-27,51-27,57s32,46,71,88c94,103,125,150,165,247c46,109,44,138-17,303c-88,240-116,315-164,444
		c-50,134-88,193-139,214C2819,5235,2574,5243,2525,5227z"/>
</g>
</svg>
